<mxfile modified="2023-11-19T05:08:14.880Z" host="app.diagrams.net" agent="Mozilla/5.0 (Windows NT 10.0; Win64; x64) AppleWebKit/537.36 (KHTML, like Gecko) Chrome/119.0.0.0 Safari/537.36" etag="ZMTi1qI2Et76GAoFa-Fz" version="22.1.3" type="device">
  <diagram id="Ht1M8jgEwFfnCIfOTk4-" name="Page-1">
    <mxGraphModel dx="1434" dy="750" grid="1" gridSize="10" guides="1" tooltips="1" connect="1" arrows="1" fold="1" page="1" pageScale="1" pageWidth="1169" pageHeight="827" math="0" shadow="0">
      <root>
        <mxCell id="0" />
        <mxCell id="1" parent="0" />
        <mxCell id="D5V1keUyLsKSwLEzaGYJ-2" value="" style="rounded=0;whiteSpace=wrap;html=1;fillColor=#FFFFFF;strokeColor=none;" vertex="1" parent="1">
          <mxGeometry x="60" y="60" width="610" height="360" as="geometry" />
        </mxCell>
        <mxCell id="UEzPUAAOIrF-is8g5C7q-74" value="AWS Cloud" style="points=[[0,0],[0.25,0],[0.5,0],[0.75,0],[1,0],[1,0.25],[1,0.5],[1,0.75],[1,1],[0.75,1],[0.5,1],[0.25,1],[0,1],[0,0.75],[0,0.5],[0,0.25]];outlineConnect=0;gradientColor=none;html=1;whiteSpace=wrap;fontSize=12;fontStyle=0;shape=mxgraph.aws4.group;grIcon=mxgraph.aws4.group_aws_cloud_alt;strokeColor=#232F3E;fillColor=none;verticalAlign=top;align=left;spacingLeft=30;fontColor=#232F3E;dashed=0;labelBackgroundColor=#ffffff;container=1;pointerEvents=0;collapsible=0;recursiveResize=0;" parent="1" vertex="1">
          <mxGeometry x="200" y="80" width="450" height="320" as="geometry" />
        </mxCell>
        <mxCell id="23x8Qz3Yby6lQrTN3UrJ-24" value="" style="rounded=0;whiteSpace=wrap;html=1;fillColor=none;" parent="UEzPUAAOIrF-is8g5C7q-74" vertex="1">
          <mxGeometry x="270" y="30" width="160" height="270" as="geometry" />
        </mxCell>
        <mxCell id="23x8Qz3Yby6lQrTN3UrJ-13" style="edgeStyle=orthogonalEdgeStyle;rounded=0;orthogonalLoop=1;jettySize=auto;html=1;exitX=1;exitY=0.5;exitDx=0;exitDy=0;exitPerimeter=0;" parent="UEzPUAAOIrF-is8g5C7q-74" source="23x8Qz3Yby6lQrTN3UrJ-4" target="23x8Qz3Yby6lQrTN3UrJ-6" edge="1">
          <mxGeometry relative="1" as="geometry" />
        </mxCell>
        <mxCell id="23x8Qz3Yby6lQrTN3UrJ-4" value="AWS Lambda" style="sketch=0;points=[[0,0,0],[0.25,0,0],[0.5,0,0],[0.75,0,0],[1,0,0],[0,1,0],[0.25,1,0],[0.5,1,0],[0.75,1,0],[1,1,0],[0,0.25,0],[0,0.5,0],[0,0.75,0],[1,0.25,0],[1,0.5,0],[1,0.75,0]];outlineConnect=0;fontColor=#232F3E;fillColor=#ED7100;strokeColor=#ffffff;dashed=0;verticalLabelPosition=bottom;verticalAlign=top;align=center;html=1;fontSize=12;fontStyle=0;aspect=fixed;shape=mxgraph.aws4.resourceIcon;resIcon=mxgraph.aws4.lambda;" parent="UEzPUAAOIrF-is8g5C7q-74" vertex="1">
          <mxGeometry x="180" y="70" width="78" height="78" as="geometry" />
        </mxCell>
        <mxCell id="23x8Qz3Yby6lQrTN3UrJ-6" value="AWS CodeBuild" style="outlineConnect=0;dashed=0;verticalLabelPosition=bottom;verticalAlign=top;align=center;html=1;shape=mxgraph.aws3.codebuild;fillColor=#759C3E;gradientColor=none;" parent="UEzPUAAOIrF-is8g5C7q-74" vertex="1">
          <mxGeometry x="290" y="62.5" width="76.5" height="93" as="geometry" />
        </mxCell>
        <mxCell id="23x8Qz3Yby6lQrTN3UrJ-11" value="Amazon API&lt;br&gt;Gateway" style="sketch=0;points=[[0,0,0],[0.25,0,0],[0.5,0,0],[0.75,0,0],[1,0,0],[0,1,0],[0.25,1,0],[0.5,1,0],[0.75,1,0],[1,1,0],[0,0.25,0],[0,0.5,0],[0,0.75,0],[1,0.25,0],[1,0.5,0],[1,0.75,0]];outlineConnect=0;fontColor=#232F3E;fillColor=#E7157B;strokeColor=#ffffff;dashed=0;verticalLabelPosition=bottom;verticalAlign=top;align=center;html=1;fontSize=12;fontStyle=0;aspect=fixed;shape=mxgraph.aws4.resourceIcon;resIcon=mxgraph.aws4.api_gateway;" parent="UEzPUAAOIrF-is8g5C7q-74" vertex="1">
          <mxGeometry x="70" y="70" width="78" height="78" as="geometry" />
        </mxCell>
        <mxCell id="23x8Qz3Yby6lQrTN3UrJ-12" style="edgeStyle=orthogonalEdgeStyle;rounded=0;orthogonalLoop=1;jettySize=auto;html=1;exitX=1;exitY=0.5;exitDx=0;exitDy=0;exitPerimeter=0;entryX=0;entryY=0.5;entryDx=0;entryDy=0;entryPerimeter=0;" parent="UEzPUAAOIrF-is8g5C7q-74" source="23x8Qz3Yby6lQrTN3UrJ-11" target="23x8Qz3Yby6lQrTN3UrJ-4" edge="1">
          <mxGeometry relative="1" as="geometry" />
        </mxCell>
        <mxCell id="23x8Qz3Yby6lQrTN3UrJ-25" value="Self-Hosted Runner&lt;br&gt;on Docker" style="rounded=0;whiteSpace=wrap;html=1;" parent="UEzPUAAOIrF-is8g5C7q-74" vertex="1">
          <mxGeometry x="290" y="210" width="120" height="60" as="geometry" />
        </mxCell>
        <mxCell id="23x8Qz3Yby6lQrTN3UrJ-8" style="edgeStyle=orthogonalEdgeStyle;rounded=0;orthogonalLoop=1;jettySize=auto;html=1;entryX=0;entryY=0.5;entryDx=0;entryDy=0;entryPerimeter=0;" parent="1" source="23x8Qz3Yby6lQrTN3UrJ-5" target="23x8Qz3Yby6lQrTN3UrJ-11" edge="1">
          <mxGeometry relative="1" as="geometry">
            <mxPoint x="260" y="205" as="targetPoint" />
          </mxGeometry>
        </mxCell>
        <mxCell id="23x8Qz3Yby6lQrTN3UrJ-22" value="Webhook" style="edgeLabel;html=1;align=center;verticalAlign=middle;resizable=0;points=[];" parent="23x8Qz3Yby6lQrTN3UrJ-8" vertex="1" connectable="0">
          <mxGeometry x="-0.072" y="1" relative="1" as="geometry">
            <mxPoint as="offset" />
          </mxGeometry>
        </mxCell>
        <mxCell id="23x8Qz3Yby6lQrTN3UrJ-5" value="" style="dashed=0;outlineConnect=0;html=1;align=center;labelPosition=center;verticalLabelPosition=bottom;verticalAlign=top;shape=mxgraph.weblogos.github" parent="1" vertex="1">
          <mxGeometry x="70" y="151.5" width="75" height="75" as="geometry" />
        </mxCell>
        <mxCell id="23x8Qz3Yby6lQrTN3UrJ-26" style="edgeStyle=orthogonalEdgeStyle;rounded=0;orthogonalLoop=1;jettySize=auto;html=1;startArrow=classic;startFill=1;" parent="1" source="23x8Qz3Yby6lQrTN3UrJ-25" target="23x8Qz3Yby6lQrTN3UrJ-5" edge="1">
          <mxGeometry relative="1" as="geometry" />
        </mxCell>
      </root>
    </mxGraphModel>
  </diagram>
</mxfile>
